<?xml version="1.0" encoding="UTF-8" standalone="no" ?>
<!DOCTYPE svg PUBLIC "-//W3C//DTD SVG 1.1//EN" "http://www.w3.org/Graphics/SVG/1.1/DTD/svg11.dtd">
<svg xmlns="http://www.w3.org/2000/svg" xmlns:xlink="http://www.w3.org/1999/xlink" version="1.1" width="302.61" height="299.07000000000005" xml:space="preserve">
<desc>Created with Fabric.js 1.6.0-rc.1</desc>
<defs></defs>
<g style="stroke: none; stroke-width: 1; stroke-dasharray: none; stroke-linecap: butt; stroke-linejoin: miter; stroke-miterlimit: 10; fill: none; fill-rule: nonzero; opacity: 1;" transform="translate(10 10) scale(4.79 4.73)" >
  <circle cx="29" cy="29" r="29" style="stroke: none; stroke-width: 1; stroke-dasharray: none; stroke-linecap: butt; stroke-linejoin: miter; stroke-miterlimit: 10; fill: #000005; fill-rule: nonzero; opacity: 0;" transform="  matrix(1 0 0 1 0 0) "/>
  <path d="M 18.427 20 h -8.323 C 8.942 20 8 20.942 8 22.104 v 12.793 C 8 36.058 8.942 37 10.104 37 h 8.323 c 0.375 0 0.743 0.1 1.067 0.29 L 32.83 49.706 C 34.232 50.531 36 49.52 36 47.893 V 9.107 c 0 -1.627 -1.768 -2.638 -3.17 -1.813 L 19.494 19.71 C 19.17 19.9 18.802 20 18.427 20 z" style="stroke: none; stroke-width: 1; stroke-dasharray: none; stroke-linecap: butt; stroke-linejoin: miter; stroke-miterlimit: 10; fill: #000005; fill-rule: nonzero; opacity: 0;" transform=" matrix(1 0 0 1 0 0) " stroke-linecap="round" />
  <path d="M 40 38 c -0.256 0 -0.512 -0.098 -0.707 -0.293 c -0.391 -0.391 -0.391 -1.023 0 -1.414 c 4.297 -4.297 4.297 -11.289 0 -15.586 c -0.391 -0.391 -0.391 -1.023 0 -1.414 s 1.023 -0.391 1.414 0 c 5.077 5.077 5.077 13.337 0 18.414 C 40.512 37.902 40.256 38 40 38 z" style="stroke: none; stroke-width: 1; stroke-dasharray: none; stroke-linecap: butt; stroke-linejoin: miter; stroke-miterlimit: 10; fill: #fab308; fill-rule: nonzero; opacity: 1;" transform=" matrix(1 0 0 1 0 0) " stroke-linecap="round" />
</g>
<g style="stroke: none; stroke-width: 1; stroke-dasharray: none; stroke-linecap: butt; stroke-linejoin: miter; stroke-miterlimit: 10; fill: none; fill-rule: nonzero; opacity: 1;" transform="translate(55.72000000000003 54.98999999999998) scale(3.23 3.23)" >
  <circle cx="29" cy="29" r="29" style="stroke: none; stroke-width: 1; stroke-dasharray: none; stroke-linecap: butt; stroke-linejoin: miter; stroke-miterlimit: 10; fill: #1c1b11; fill-rule: nonzero; opacity: 0;" transform="  matrix(1 0 0 1 0 0) "/>
  <path d="M 18.427 20 h -8.323 C 8.942 20 8 20.942 8 22.104 v 12.793 C 8 36.058 8.942 37 10.104 37 h 8.323 c 0.375 0 0.743 0.1 1.067 0.29 L 32.83 49.706 C 34.232 50.531 36 49.52 36 47.893 V 9.107 c 0 -1.627 -1.768 -2.638 -3.17 -1.813 L 19.494 19.71 C 19.17 19.9 18.802 20 18.427 20 z" style="stroke: none; stroke-width: 1; stroke-dasharray: none; stroke-linecap: butt; stroke-linejoin: miter; stroke-miterlimit: 10; fill: #314b80; fill-rule: nonzero; opacity: 1;" transform=" matrix(1 0 0 1 0 0) " stroke-linecap="round" />
  <path d="M 40 38 c -0.256 0 -0.512 -0.098 -0.707 -0.293 c -0.391 -0.391 -0.391 -1.023 0 -1.414 c 4.297 -4.297 4.297 -11.289 0 -15.586 c -0.391 -0.391 -0.391 -1.023 0 -1.414 s 1.023 -0.391 1.414 0 c 5.077 5.077 5.077 13.337 0 18.414 C 40.512 37.902 40.256 38 40 38 z" style="stroke: none; stroke-width: 1; stroke-dasharray: none; stroke-linecap: butt; stroke-linejoin: miter; stroke-miterlimit: 10; fill: #ffd500; fill-rule: nonzero; opacity: 1;" transform=" matrix(1 0 0 1 0 0) " stroke-linecap="round" />
</g>
</svg>